<svg xmlns="http://www.w3.org/2000/svg" xmlns:xlink="http://www.w3.org/1999/xlink" viewBox="0 0 500 500" width="500" height="500" preserveAspectRatio="xMidYMid meet" style="width: 100%; height: 100%; transform: translate3d(0px, 0px, 0px); content-visibility: visible;"><defs><clipPath id="__lottie_element_205"><rect width="500" height="500" x="0" y="0"></rect></clipPath><clipPath id="__lottie_element_208"><path d="M0,0 L500,0 L500,500 L0,500z"></path></clipPath><clipPath id="__lottie_element_212"><path d="M0,0 L500,0 L500,500 L0,500z"></path></clipPath><clipPath id="__lottie_element_216"><path d="M0,0 L500,0 L500,500 L0,500z"></path></clipPath><clipPath id="__lottie_element_221"><path d="M0,0 L500,0 L500,500 L0,500z"></path></clipPath><clipPath id="__lottie_element_247"><path d="M0,0 L500,0 L500,500 L0,500z"></path></clipPath><clipPath id="__lottie_element_273"><path d="M0,0 L500,0 L500,500 L0,500z"></path></clipPath></defs><g clip-path="url(#__lottie_element_205)"><g clip-path="url(#__lottie_element_208)" transform="matrix(1.111109972000122,0,0,1.111109972000122,-27.777496337890625,-27.777496337890625)" opacity="0" style="display: block;"><g clip-path="url(#__lottie_element_221)" transform="matrix(0.8999999761581421,0,0,0.8999999761581421,25,25)" opacity="1" style="display: block;"><g transform="matrix(3.690000057220459,0,0,3.690000057220459,-217.48793029785156,249.997314453125)" opacity="1" style="display: block;"><g opacity="1" transform="matrix(1,0,0,1,0,0)"><path stroke-linecap="round" stroke-linejoin="round" fill-opacity="0" stroke="rgb(255,255,255)" stroke-opacity="1" stroke-width="3.5" d=" M126.66699981689453,50 C108.92156982421875,50 91.1816635131836,29.322219848632812 91.1816635131836,0 C91.1816635131836,-29.44625473022461 109.63800048828125,-50 126.66699981689453,-50"></path></g></g><g transform="matrix(3.690000057220459,0,0,3.690000057220459,-217.48793029785156,249.997314453125)" opacity="1" style="display: block;"><g opacity="1" transform="matrix(1,0,0,1,0,0)"><path stroke-linecap="round" stroke-linejoin="round" fill-opacity="0" stroke="rgb(255,255,255)" stroke-opacity="1" stroke-width="3.5" d=" M126.66699981689453,50 C122.5050048828125,43.420623779296875 119.14278411865234,27.61400032043457 119.14278411865234,0 C119.14278411865234,-27.61400032043457 122.5050048828125,-38.15712356567383 126.66699981689453,-50"></path></g></g><g transform="matrix(3.690000057220459,0,0,3.690000057220459,-217.48793029785156,249.997314453125)" opacity="1" style="display: block;"><g opacity="1" transform="matrix(1,0,0,1,0,0)"><path stroke-linecap="round" stroke-linejoin="round" fill-opacity="0" stroke="rgb(255,255,255)" stroke-opacity="1" stroke-width="3.5" d=" M126.66699981689453,50 C139.90724182128906,47.829376220703125 150.64431762695312,27.61400032043457 150.64431762695312,0 C150.64431762695312,-27.61400032043457 139.90724182128906,-46.09287643432617 126.66699981689453,-50"></path></g></g><g transform="matrix(3.690000057220459,0,0,3.690000057220459,-217.48793029785156,249.997314453125)" opacity="1" style="display: block;"><g opacity="1" transform="matrix(1,0,0,1,0,0)"><path stroke-linecap="round" stroke-linejoin="round" fill-opacity="0" stroke="rgb(255,255,255)" stroke-opacity="1" stroke-width="3.5" d=" M126.66699981689453,50 C146.2308349609375,50 172.41067504882812,32.791778564453125 172.41067504882812,0 C172.41067504882812,-33.16774368286133 144.02618408203125,-50 126.66699981689453,-50"></path></g></g><g transform="matrix(3.690000057220459,0,0,3.690000057220459,-217.48793029785156,249.997314453125)" opacity="1" style="display: none;"><g opacity="1" transform="matrix(1,0,0,1,0,0)"><path stroke-linecap="round" stroke-linejoin="round" fill-opacity="0" stroke="rgb(255,255,255)" stroke-opacity="1" stroke-width="3.5" d=" M126.66699981689453,50 C146.5725860595703,50 176.16323852539062,34.46634292602539 176.16323852539062,0 C176.16323852539062,-34.96390151977539 143.69869995117188,-50 126.66699981689453,-50"></path></g></g><g transform="matrix(3.690000057220459,0,0,3.690000057220459,-217.48793029785156,249.997314453125)" opacity="1" style="display: none;"><g opacity="1" transform="matrix(1,0,0,1,0,0)"><path stroke-linecap="round" stroke-linejoin="round" fill-opacity="0" stroke="rgb(255,255,255)" stroke-opacity="1" stroke-width="3.5" d=" M126.66699981689453,50 C146.57284545898438,50 176.165283203125,34.467132568359375 176.165283203125,0 C176.165283203125,-34.964744567871094 143.69863891601562,-50 126.66699981689453,-50"></path></g></g><g transform="matrix(3.690000057220459,0,0,3.690000057220459,-217.48793029785156,249.997314453125)" opacity="1" style="display: none;"><g opacity="1" transform="matrix(1,0,0,1,0,0)"><path stroke-linecap="round" stroke-linejoin="round" fill-opacity="0" stroke="rgb(255,255,255)" stroke-opacity="1" stroke-width="3.5" d=" M126.66699981689453,50 C146.57171630859375,50 176.15664672851562,34.46378707885742 176.15664672851562,0 C176.15664672851562,-34.961158752441406 143.6988983154297,-50 126.66699981689453,-50"></path></g></g><g transform="matrix(3.690000057220459,0,0,3.690000057220459,-217.48793029785156,249.997314453125)" opacity="1" style="display: none;"><g opacity="1" transform="matrix(1,0,0,1,0,0)"><path stroke-linecap="round" stroke-linejoin="round" fill-opacity="0" stroke="rgb(255,255,255)" stroke-opacity="1" stroke-width="3.5" d=" M126.66699981689453,50 C146.5719757080078,50 176.15869140625,34.46457290649414 176.15869140625,0 C176.15869140625,-34.96200180053711 143.69883728027344,-50 126.66699981689453,-50"></path></g></g><g transform="matrix(3.690000057220459,0,0,3.690000057220459,-217.48793029785156,249.997314453125)" opacity="1" style="display: none;"><g opacity="1" transform="matrix(1,0,0,1,0,0)"><path stroke-linecap="round" stroke-linejoin="round" fill-opacity="0" stroke="rgb(255,255,255)" stroke-opacity="1" stroke-width="3.5" d=" M126.66699981689453,50 C146.5708465576172,50 176.15005493164062,34.46123123168945 176.15005493164062,0 C176.15005493164062,-34.95841598510742 143.69911193847656,-50 126.66699981689453,-50"></path></g></g><g transform="matrix(3.690000057220459,0,0,3.690000057220459,-217.48793029785156,249.997314453125)" opacity="1" style="display: none;"><g opacity="1" transform="matrix(1,0,0,1,0,0)"><path stroke-linecap="round" stroke-linejoin="round" fill-opacity="0" stroke="rgb(255,255,255)" stroke-opacity="1" stroke-width="3.5" d=" M126.66699981689453,50 C146.5711212158203,50 176.152099609375,34.46201705932617 176.152099609375,0 C176.152099609375,-34.959259033203125 143.6990509033203,-50 126.66699981689453,-50"></path></g></g><g transform="matrix(3.690000057220459,0,0,3.690000057220459,-217.48793029785156,249.997314453125)" opacity="1" style="display: block;"><g opacity="1" transform="matrix(1,0,0,1,0,0)"><path stroke-linecap="round" stroke-linejoin="round" fill-opacity="0" stroke="rgb(255,255,255)" stroke-opacity="1" stroke-width="3.5" d=" M76.66699981689453,0 C76.66699981689453,0 176.66700744628906,0 176.66700744628906,0"></path></g></g><g transform="matrix(3.690000057220459,0,0,3.690000057220459,-217.48423767089844,249.997314453125)" opacity="1" style="display: block;"><g opacity="1" transform="matrix(1,0,0,1,0,0)"><path stroke-linecap="round" stroke-linejoin="round" fill-opacity="0" stroke="rgb(255,255,255)" stroke-opacity="1" stroke-width="3.5" d=" M158.9929962158203,-38.13800048828125 C150.2830047607422,-33.577999114990234 139.0030059814453,-30.827999114990234 126.6729965209961,-30.827999114990234 C114.34300231933594,-30.827999114990234 103.06300354003906,-33.577999114990234 94.34300231933594,-38.13800048828125"></path></g></g><g transform="matrix(3.690000057220459,0,0,3.690000057220459,-217.48423767089844,249.997314453125)" opacity="1" style="display: block;"><g opacity="1" transform="matrix(1,0,0,1,0,0)"><path stroke-linecap="round" stroke-linejoin="round" fill-opacity="0" stroke="rgb(255,255,255)" stroke-opacity="1" stroke-width="3.5" d=" M94.34300231933594,38.13999938964844 C103.0530014038086,33.58000183105469 114.33300018310547,30.829999923706055 126.66300201416016,30.829999923706055 C138.9929962158203,30.829999923706055 150.2729949951172,33.58000183105469 158.9929962158203,38.13999938964844"></path></g></g></g><g transform="matrix(3.321000099182129,0,0,3.321000099182129,-170.7361297607422,250)" opacity="1" style="display: block;"><g opacity="1" transform="matrix(1,0,0,1,0,0)"><path stroke-linecap="round" stroke-linejoin="round" fill-opacity="0" stroke="rgb(255,255,255)" stroke-opacity="1" stroke-width="3.5" d=" M176.66700744628906,0 C176.66700744628906,27.61400032043457 154.281005859375,50 126.66699981689453,50 C99.0530014038086,50 76.66699981689453,27.61400032043457 76.66699981689453,0 C76.66699981689453,-27.61400032043457 99.0530014038086,-50 126.66699981689453,-50 C154.281005859375,-50 176.66700744628906,-27.61400032043457 176.66700744628906,0z"></path></g></g></g><g clip-path="url(#__lottie_element_212)" transform="matrix(1.111109972000122,0,0,1.111109972000122,-27.777496337890625,-27.777496337890625)" opacity="0" style="display: block;"><g clip-path="url(#__lottie_element_247)" transform="matrix(0.8999999761581421,0,0,0.8999999761581421,25,25.11248779296875)" opacity="1" style="display: block;"><g transform="matrix(3.690000057220459,0,0,3.690000057220459,-217.48793029785156,249.997314453125)" opacity="1" style="display: block;"><g opacity="1" transform="matrix(1,0,0,1,0,0)"><path stroke-linecap="round" stroke-linejoin="round" fill-opacity="0" stroke="rgb(255,255,255)" stroke-opacity="1" stroke-width="3.5" d=" M126.66699981689453,50 C109.63800048828125,50 95.83300018310547,27.61400032043457 95.83300018310547,0 C95.83300018310547,-27.61400032043457 109.63800048828125,-50 126.66699981689453,-50"></path></g></g><g transform="matrix(3.690000057220459,0,0,3.690000057220459,-217.48793029785156,249.997314453125)" opacity="1" style="display: block;"><g opacity="1" transform="matrix(1,0,0,1,0,0)"><path stroke-linecap="round" stroke-linejoin="round" fill-opacity="0" stroke="rgb(255,255,255)" stroke-opacity="1" stroke-width="3.5" d=" M126.66699981689453,50 C126.75,41.25 126.83300018310547,27.61400032043457 126.83300018310547,0 C126.83300018310547,-27.61400032043457 126.75,-34.25 126.66699981689453,-50"></path></g></g><g transform="matrix(3.690000057220459,0,0,3.690000057220459,-217.48793029785156,249.997314453125)" opacity="1" style="display: block;"><g opacity="1" transform="matrix(1,0,0,1,0,0)"><path stroke-linecap="round" stroke-linejoin="round" fill-opacity="0" stroke="rgb(255,255,255)" stroke-opacity="1" stroke-width="3.5" d=" M126.66699981689453,50 C144.2480010986328,50 158.5,27.61400032043457 158.5,0 C158.5,-27.61400032043457 144.2480010986328,-50 126.66699981689453,-50"></path></g></g><g transform="matrix(3.690000057220459,0,0,3.690000057220459,-217.48793029785156,249.997314453125)" opacity="1" style="display: none;"><g opacity="1" transform="matrix(1,0,0,1,0,0)"><path stroke-linecap="round" stroke-linejoin="round" fill-opacity="0" stroke="rgb(255,255,255)" stroke-opacity="1" stroke-width="3.5" d=" M126.66699981689453,50 C146.87435913085938,50 176.92530822753906,34.47220230102539 176.92530822753906,0 C176.92530822753906,-34.97018051147461 143.95419311523438,-50 126.66699981689453,-50"></path></g></g><g transform="matrix(3.690000057220459,0,0,3.690000057220459,-217.48793029785156,249.997314453125)" opacity="1" style="display: none;"><g opacity="1" transform="matrix(1,0,0,1,0,0)"><path stroke-linecap="round" stroke-linejoin="round" fill-opacity="0" stroke="rgb(255,255,255)" stroke-opacity="1" stroke-width="3.5" d=" M126.66699981689453,50 C146.5024871826172,50 175.6306610107422,34.25973129272461 175.6306610107422,0 C175.6306610107422,-34.74228286743164 143.7152557373047,-50 126.66699981689453,-50"></path></g></g><g transform="matrix(3.690000057220459,0,0,3.690000057220459,-217.48793029785156,249.997314453125)" opacity="1" style="display: none;"><g opacity="1" transform="matrix(1,0,0,1,0,0)"><path stroke-linecap="round" stroke-linejoin="round" fill-opacity="0" stroke="rgb(255,255,255)" stroke-opacity="1" stroke-width="3.5" d=" M126.66699981689453,50 C146.49424743652344,50 175.5679931640625,34.23542022705078 175.5679931640625,0 C175.5679931640625,-34.716209411621094 143.7172088623047,-50 126.66699981689453,-50"></path></g></g><g transform="matrix(3.690000057220459,0,0,3.690000057220459,-217.48793029785156,249.997314453125)" opacity="1" style="display: none;"><g opacity="1" transform="matrix(1,0,0,1,0,0)"><path stroke-linecap="round" stroke-linejoin="round" fill-opacity="0" stroke="rgb(255,255,255)" stroke-opacity="1" stroke-width="3.5" d=" M126.66699981689453,50 C146.33096313476562,50 174.3273162841797,33.75410461425781 174.3273162841797,0 C174.3273162841797,-34.19994354248047 143.75579833984375,-50 126.66699981689453,-50"></path></g></g><g transform="matrix(3.690000057220459,0,0,3.690000057220459,-217.48793029785156,249.997314453125)" opacity="1" style="display: none;"><g opacity="1" transform="matrix(1,0,0,1,0,0)"><path stroke-linecap="round" stroke-linejoin="round" fill-opacity="0" stroke="rgb(255,255,255)" stroke-opacity="1" stroke-width="3.5" d=" M126.66699981689453,50 C146.44290161132812,50 175.17782592773438,34.08405685424805 175.17782592773438,0 C175.17782592773438,-34.55385208129883 143.72933959960938,-50 126.66699981689453,-50"></path></g></g><g transform="matrix(3.690000057220459,0,0,3.690000057220459,-217.48793029785156,249.997314453125)" opacity="1" style="display: none;"><g opacity="1" transform="matrix(1,0,0,1,0,0)"><path stroke-linecap="round" stroke-linejoin="round" fill-opacity="0" stroke="rgb(255,255,255)" stroke-opacity="1" stroke-width="3.5" d=" M126.66699981689453,50 C146.33689880371094,50 174.37237548828125,33.771583557128906 174.37237548828125,0 C174.37237548828125,-34.218692779541016 143.75439453125,-50 126.66699981689453,-50"></path></g></g><g transform="matrix(3.690000057220459,0,0,3.690000057220459,-217.48793029785156,249.997314453125)" opacity="1" style="display: none;"><g opacity="1" transform="matrix(1,0,0,1,0,0)"><path stroke-linecap="round" stroke-linejoin="round" fill-opacity="0" stroke="rgb(255,255,255)" stroke-opacity="1" stroke-width="3.5" d=" M126.66699981689453,50 C145.44944763183594,50 167.62913513183594,31.15559196472168 167.62913513183594,0 C167.62913513183594,-31.412752151489258 143.96409606933594,-50 126.66699981689453,-50"></path></g></g><g transform="matrix(3.690000057220459,0,0,3.690000057220459,-217.48793029785156,249.997314453125)" opacity="1" style="display: block;"><g opacity="1" transform="matrix(1,0,0,1,0,0)"><path stroke-linecap="round" stroke-linejoin="round" fill-opacity="0" stroke="rgb(255,255,255)" stroke-opacity="1" stroke-width="3.5" d=" M76.66699981689453,0 C76.66699981689453,0 127.10800170898438,0 127.10800170898438,0 C127.10800170898438,0 176.66700744628906,0 176.66700744628906,0"></path></g></g><g transform="matrix(3.690000057220459,0,0,3.690000057220459,-217.48423767089844,249.997314453125)" opacity="1" style="display: block;"><g opacity="1" transform="matrix(1,0,0,1,0,0)"><path stroke-linecap="round" stroke-linejoin="round" fill-opacity="0" stroke="rgb(255,255,255)" stroke-opacity="1" stroke-width="3.5" d=" M158.9929962158203,-38.13800048828125 C150.2830047607422,-33.577999114990234 139.0030059814453,-30.827999114990234 126.6729965209961,-30.827999114990234 C114.34300231933594,-30.827999114990234 103.06300354003906,-33.577999114990234 94.34300231933594,-38.13800048828125"></path></g></g><g transform="matrix(3.690000057220459,0,0,3.690000057220459,-217.48423767089844,249.997314453125)" opacity="1" style="display: block;"><g opacity="1" transform="matrix(1,0,0,1,0,0)"><path stroke-linecap="round" stroke-linejoin="round" fill-opacity="0" stroke="rgb(255,255,255)" stroke-opacity="1" stroke-width="3.5" d=" M94.34300231933594,38.13999938964844 C103.0530014038086,33.58000183105469 114.33300018310547,30.829999923706055 126.66300201416016,30.829999923706055 C138.9929962158203,30.829999923706055 150.2729949951172,33.58000183105469 158.9929962158203,38.13999938964844"></path></g></g></g><g transform="matrix(3.32099986076355,0,0,3.32099986076355,-170.73580932617188,250.11248779296875)" opacity="1" style="display: block;"><g opacity="1" transform="matrix(1,0,0,1,0,0)"><path stroke-linecap="round" stroke-linejoin="round" fill-opacity="0" stroke="rgb(255,255,255)" stroke-opacity="1" stroke-width="3.5" d=" M176.66700744628906,0 C176.66700744628906,27.61400032043457 154.281005859375,50 126.66699981689453,50 C99.0530014038086,50 76.66699981689453,27.61400032043457 76.66699981689453,0 C76.66699981689453,-27.61400032043457 99.0530014038086,-50 126.66699981689453,-50 C154.281005859375,-50 176.66700744628906,-27.61400032043457 176.66700744628906,0z"></path></g></g></g><g clip-path="url(#__lottie_element_216)" transform="matrix(1.111109972000122,0,0,1.111109972000122,-27.777496337890625,-27.777496337890625)" opacity="1" style="display: block;"><g clip-path="url(#__lottie_element_273)" transform="matrix(0.8999999761581421,0,0,0.8999999761581421,25,25)" opacity="1" style="display: block;"><g transform="matrix(3.690000057220459,0,0,3.690000057220459,-217.48793029785156,249.997314453125)" opacity="1" style="display: block;"><g opacity="1" transform="matrix(1,0,0,1,0,0)"><path stroke-linecap="round" stroke-linejoin="round" fill-opacity="0" stroke="rgb(255,255,255)" stroke-opacity="1" stroke-width="3.5" d=" M126.66699981689453,50 C109.63800048828125,50 95.83300018310547,27.61400032043457 95.83300018310547,0 C95.83300018310547,-27.61400032043457 109.63800048828125,-50 126.66699981689453,-50"></path></g></g><g transform="matrix(3.690000057220459,0,0,3.690000057220459,-217.48793029785156,249.997314453125)" opacity="1" style="display: block;"><g opacity="1" transform="matrix(1,0,0,1,0,0)"><path stroke-linecap="round" stroke-linejoin="round" fill-opacity="0" stroke="rgb(255,255,255)" stroke-opacity="1" stroke-width="3.5" d=" M126.66699981689453,50 C126.75,41.25 126.83300018310547,27.61400032043457 126.83300018310547,0 C126.83300018310547,-27.61400032043457 126.75,-34.25 126.66699981689453,-50"></path></g></g><g transform="matrix(3.690000057220459,0,0,3.690000057220459,-217.48793029785156,249.997314453125)" opacity="1" style="display: block;"><g opacity="1" transform="matrix(1,0,0,1,0,0)"><path stroke-linecap="round" stroke-linejoin="round" fill-opacity="0" stroke="rgb(255,255,255)" stroke-opacity="1" stroke-width="3.5" d=" M126.66699981689453,50 C144.2480010986328,50 158.5,27.61400032043457 158.5,0 C158.5,-27.61400032043457 144.2480010986328,-50 126.66699981689453,-50"></path></g></g><g transform="matrix(3.690000057220459,0,0,3.690000057220459,-217.48793029785156,249.997314453125)" opacity="1" style="display: none;"><g opacity="1" transform="matrix(1,0,0,1,0,0)"><path stroke-linecap="round" stroke-linejoin="round" fill-opacity="0" stroke="rgb(255,255,255)" stroke-opacity="1" stroke-width="3.5" d=" M126.66699981689453,50 C146.87435913085938,50 176.92530822753906,34.47220230102539 176.92530822753906,0 C176.92530822753906,-34.97018051147461 143.95419311523438,-50 126.66699981689453,-50"></path></g></g><g transform="matrix(3.690000057220459,0,0,3.690000057220459,-217.48793029785156,249.997314453125)" opacity="1" style="display: none;"><g opacity="1" transform="matrix(1,0,0,1,0,0)"><path stroke-linecap="round" stroke-linejoin="round" fill-opacity="0" stroke="rgb(255,255,255)" stroke-opacity="1" stroke-width="3.5" d=" M126.66699981689453,50 C146.5024871826172,50 175.6306610107422,34.25973129272461 175.6306610107422,0 C175.6306610107422,-34.74228286743164 143.7152557373047,-50 126.66699981689453,-50"></path></g></g><g transform="matrix(3.690000057220459,0,0,3.690000057220459,-217.48793029785156,249.997314453125)" opacity="1" style="display: none;"><g opacity="1" transform="matrix(1,0,0,1,0,0)"><path stroke-linecap="round" stroke-linejoin="round" fill-opacity="0" stroke="rgb(255,255,255)" stroke-opacity="1" stroke-width="3.5" d=" M126.66699981689453,50 C146.49424743652344,50 175.5679931640625,34.23542022705078 175.5679931640625,0 C175.5679931640625,-34.716209411621094 143.7172088623047,-50 126.66699981689453,-50"></path></g></g><g transform="matrix(3.690000057220459,0,0,3.690000057220459,-217.48793029785156,249.997314453125)" opacity="1" style="display: none;"><g opacity="1" transform="matrix(1,0,0,1,0,0)"><path stroke-linecap="round" stroke-linejoin="round" fill-opacity="0" stroke="rgb(255,255,255)" stroke-opacity="1" stroke-width="3.5" d=" M126.66699981689453,50 C146.33096313476562,50 174.3273162841797,33.75410461425781 174.3273162841797,0 C174.3273162841797,-34.19994354248047 143.75579833984375,-50 126.66699981689453,-50"></path></g></g><g transform="matrix(3.690000057220459,0,0,3.690000057220459,-217.48793029785156,249.997314453125)" opacity="1" style="display: none;"><g opacity="1" transform="matrix(1,0,0,1,0,0)"><path stroke-linecap="round" stroke-linejoin="round" fill-opacity="0" stroke="rgb(255,255,255)" stroke-opacity="1" stroke-width="3.5" d=" M126.66699981689453,50 C146.44290161132812,50 175.17782592773438,34.08405685424805 175.17782592773438,0 C175.17782592773438,-34.55385208129883 143.72933959960938,-50 126.66699981689453,-50"></path></g></g><g transform="matrix(3.690000057220459,0,0,3.690000057220459,-217.48793029785156,249.997314453125)" opacity="1" style="display: none;"><g opacity="1" transform="matrix(1,0,0,1,0,0)"><path stroke-linecap="round" stroke-linejoin="round" fill-opacity="0" stroke="rgb(255,255,255)" stroke-opacity="1" stroke-width="3.5" d=" M126.66699981689453,50 C146.33689880371094,50 174.37237548828125,33.771583557128906 174.37237548828125,0 C174.37237548828125,-34.218692779541016 143.75439453125,-50 126.66699981689453,-50"></path></g></g><g transform="matrix(3.690000057220459,0,0,3.690000057220459,-217.48793029785156,249.997314453125)" opacity="1" style="display: none;"><g opacity="1" transform="matrix(1,0,0,1,0,0)"><path stroke-linecap="round" stroke-linejoin="round" fill-opacity="0" stroke="rgb(255,255,255)" stroke-opacity="1" stroke-width="3.5" d=" M126.66699981689453,50 C145.44944763183594,50 167.62913513183594,31.15559196472168 167.62913513183594,0 C167.62913513183594,-31.412752151489258 143.96409606933594,-50 126.66699981689453,-50"></path></g></g><g transform="matrix(3.690000057220459,0,0,3.690000057220459,-217.48793029785156,249.997314453125)" opacity="1" style="display: block;"><g opacity="1" transform="matrix(1,0,0,1,0,0)"><path stroke-linecap="round" stroke-linejoin="round" fill-opacity="0" stroke="rgb(255,255,255)" stroke-opacity="1" stroke-width="3.5" d=" M76.66699981689453,0 C76.66699981689453,0 176.66700744628906,0 176.66700744628906,0"></path></g></g><g transform="matrix(3.690000057220459,0,0,3.690000057220459,-217.48423767089844,249.997314453125)" opacity="1" style="display: block;"><g opacity="1" transform="matrix(1,0,0,1,0,0)"><path stroke-linecap="round" stroke-linejoin="round" fill-opacity="0" stroke="rgb(255,255,255)" stroke-opacity="1" stroke-width="3.5" d=" M158.9929962158203,-38.13800048828125 C150.2830047607422,-33.577999114990234 139.0030059814453,-30.827999114990234 126.6729965209961,-30.827999114990234 C114.34300231933594,-30.827999114990234 103.06300354003906,-33.577999114990234 94.34300231933594,-38.13800048828125"></path></g></g><g transform="matrix(3.690000057220459,0,0,3.690000057220459,-217.48423767089844,249.997314453125)" opacity="1" style="display: block;"><g opacity="1" transform="matrix(1,0,0,1,0,0)"><path stroke-linecap="round" stroke-linejoin="round" fill-opacity="0" stroke="rgb(255,255,255)" stroke-opacity="1" stroke-width="3.5" d=" M94.34300231933594,38.13999938964844 C103.0530014038086,33.58000183105469 114.33300018310547,30.829999923706055 126.66300201416016,30.829999923706055 C138.9929962158203,30.829999923706055 150.2729949951172,33.58000183105469 158.9929962158203,38.13999938964844"></path></g></g></g><g transform="matrix(3.321000099182129,0,0,3.321000099182129,-170.7361297607422,250)" opacity="1" style="display: block;"><g opacity="1" transform="matrix(1,0,0,1,0,0)"><path stroke-linecap="round" stroke-linejoin="round" fill-opacity="0" stroke="rgb(255,255,255)" stroke-opacity="1" stroke-width="3.5" d=" M176.66700744628906,0 C176.66700744628906,27.61400032043457 154.281005859375,50 126.66699981689453,50 C99.0530014038086,50 76.66699981689453,27.61400032043457 76.66699981689453,0 C76.66699981689453,-27.61400032043457 99.0530014038086,-50 126.66699981689453,-50 C154.281005859375,-50 176.66700744628906,-27.61400032043457 176.66700744628906,0z"></path></g></g></g><g style="display: none;"><path></path></g></g></svg>